<?xml version="1.0" encoding="iso-8859-1"?>
<!-- Generator: Adobe Illustrator 16.0.0, SVG Export Plug-In . SVG Version: 6.00 Build 0)  -->
<!DOCTYPE svg PUBLIC "-//W3C//DTD SVG 1.1//EN" "http://www.w3.org/Graphics/SVG/1.1/DTD/svg11.dtd">
<svg version="1.1" id="Capa_1" xmlns="http://www.w3.org/2000/svg" xmlns:xlink="http://www.w3.org/1999/xlink" x="0px" y="0px"
	 width="697.515px" height="697.515px" viewBox="0 0 697.515 697.515" style="enable-background:new 0 0 697.515 697.515;"
	 xml:space="preserve">
<g>
	<g id="play">
		<g>
			<path d="M139.605,87.558l23.403-29.722L103.11,10.689C89.412-0.095,74.485-2.895,62.149,3.122
				C49.833,9.081,42.757,22.514,42.757,39.977v617.562c0,17.443,7.076,30.895,19.392,36.873c4.276,2.081,8.873,3.103,13.603,3.103
				c8.93,0,18.409-3.613,27.357-10.67l54.601-43.004l-23.403-29.722l-53.712,42.266V41.111L139.605,87.558z M635.271,310.484
				L254.464,10.689C245.477,3.595,236.301,0,227.201,0c-16.479,0-33.09,12.354-33.09,39.977v617.562
				c0,27.603,16.611,39.976,33.09,39.976c9.1,0,18.276-3.595,27.263-10.689l380.807-299.794
				c12.373-9.743,19.486-23.688,19.486-38.274S647.644,320.228,635.271,310.484z M231.95,160.284l228.563,179.922
				c3.254,2.573,5.052,5.6,5.052,8.551c0,2.952-1.798,5.979-5.052,8.551L231.95,537.212V160.284z M611.868,357.29L231.95,656.385
				v-71.023l251.967-198.349c12.373-9.744,19.468-23.688,19.468-38.274c0-14.587-7.095-28.53-19.468-38.274L231.95,112.115V41.111
				l379.918,299.095c3.254,2.573,5.051,5.6,5.051,8.551C616.918,351.69,615.103,354.736,611.868,357.29z"/>
		</g>
	</g>
</g>
<g>
</g>
<g>
</g>
<g>
</g>
<g>
</g>
<g>
</g>
<g>
</g>
<g>
</g>
<g>
</g>
<g>
</g>
<g>
</g>
<g>
</g>
<g>
</g>
<g>
</g>
<g>
</g>
<g>
</g>
</svg>
